<svg width="12" height="17" fill="none" xmlns="http://www.w3.org/2000/svg"><path d="M6.75 1.75c0 .583.177 1.146.531 1.688.375.52.813 1.01 1.313 1.468.52.438 1.031.917 1.531 1.438.52.52.958 1.187 1.313 2C11.812 9.135 12 10.02 12 11c0 1.646-.594 3.052-1.781 4.219C9.052 16.406 7.646 17 6 17c-1.646 0-3.063-.594-4.25-1.781C.583 14.052 0 12.646 0 11c0-.98.23-1.906.688-2.781a6.046 6.046 0 011.875-2.156.71.71 0 01.78-.032c.272.146.407.365.407.657V10c0 .354.115.656.344.906.25.23.552.344.906.344s.646-.115.875-.344c.25-.25.375-.552.375-.906 0-.25-.125-.594-.375-1.031-.25-.438-.51-.896-.781-1.375a9.855 9.855 0 01-.719-1.625c-.188-.604-.208-1.313-.063-2.125.146-.813.5-1.646 1.063-2.5.208-.313.49-.417.844-.313.354.104.531.344.531.719zM2.812 14.188C3.688 15.062 4.75 15.5 6 15.5c1.25 0 2.313-.438 3.188-1.313.874-.874 1.312-1.937 1.312-3.187 0-.854-.198-1.635-.594-2.344-.375-.729-.812-1.312-1.312-1.75A28.61 28.61 0 017 5.313c-.563-.625-.98-1.23-1.25-1.813a3.73 3.73 0 00.156 2.375c.334.77.719 1.52 1.157 2.25.458.73.687 1.354.687 1.875 0 .75-.27 1.396-.813 1.938-.541.541-1.187.812-1.937.812s-1.396-.27-1.938-.813c-.54-.541-.812-1.187-.812-1.937V8.25C1.75 9 1.5 9.917 1.5 11c0 1.25.438 2.313 1.313 3.188z" fill="#fff"/></svg>